<?xml version="1.0" standalone="no"?>
<!DOCTYPE svg PUBLIC "-//W3C//DTD SVG 20010904//EN"
 "http://www.w3.org/TR/2001/REC-SVG-20010904/DTD/svg10.dtd">
<svg version="1.0" xmlns="http://www.w3.org/2000/svg"
 width="883.000000pt" height="883.000000pt" viewBox="0 0 883.000000 883.000000"
 preserveAspectRatio="xMidYMid meet">
<metadata>
Created by potrace 1.14, written by Peter Selinger 2001-2017
</metadata>
<g transform="translate(0.000000,883.000000) scale(0.100000,-0.100000)"
fill="#000000" stroke="none">
<path d="M2938 5785 c-2 -1 -23 -5 -48 -8 -142 -18 -296 -74 -417 -154 -219
-144 -356 -358 -404 -633 -18 -104 -18 -1153 -1 -1255 31 -172 108 -333 216
-448 110 -117 332 -236 486 -261 19 -3 46 -9 60 -12 52 -13 342 -16 404 -4 33
7 68 13 76 15 48 9 143 42 200 68 290 133 477 379 530 697 14 80 19 1055 7
1180 -41 418 -345 726 -797 805 -37 6 -306 15 -312 10z m252 -501 c152 -43
246 -155 284 -339 14 -68 17 -150 16 -555 0 -261 -3 -491 -6 -510 -44 -278
-189 -405 -452 -395 -231 9 -359 127 -408 375 -10 49 -12 937 -2 1024 9 84 39
184 73 241 87 149 293 215 495 159z"/>
<path d="M7817 5784 c-1 -1 -42 -4 -92 -7 -213 -13 -414 -82 -545 -184 -145
-114 -233 -267 -264 -457 -13 -86 -14 -296 -1 -361 50 -252 196 -415 459 -510
89 -32 239 -69 327 -80 157 -19 310 -55 379 -87 123 -58 173 -133 177 -268 1
-47 -3 -103 -10 -125 -50 -164 -223 -246 -470 -223 -215 20 -325 154 -342 418
-2 25 -3 48 -4 53 -1 4 -125 7 -276 7 l-275 0 5 -99 c4 -88 14 -170 30 -250
16 -81 71 -208 124 -284 115 -167 332 -283 589 -314 87 -10 359 -10 442 1 383
49 643 249 719 553 29 112 33 145 32 265 -1 251 -52 399 -180 526 -149 146
-332 216 -748 282 -198 31 -291 66 -359 135 -55 56 -69 99 -68 215 0 79 4 103
23 142 39 81 134 149 231 166 19 4 82 6 140 6 131 -1 201 -25 267 -91 72 -71
106 -169 119 -337 l7 -83 273 0 c244 0 274 2 275 16 0 9 0 52 -1 96 -9 546
-265 832 -776 870 -87 7 -204 12 -207 9z"/>
<path d="M28 5740 c0 -3 -2 -112 -3 -242 l-2 -238 311 -2 311 -3 2 -1080 c0
-594 2 -1092 2 -1107 l1 -28 280 0 280 0 0 1110 0 1110 313 0 312 0 0 234 c0
129 -4 238 -8 242 -8 9 -1796 12 -1799 4z"/>
<path d="M4563 5742 l-21 -3 0 -982 c0 -540 4 -1009 8 -1042 15 -116 21 -146
49 -229 36 -110 83 -188 157 -261 107 -106 240 -168 442 -205 159 -28 493 -26
649 5 403 81 594 296 631 711 4 49 7 522 7 1049 l0 959 -273 0 c-151 1 -277
-1 -281 -4 -4 -3 -7 -423 -7 -935 0 -511 -3 -959 -7 -995 -23 -239 -153 -335
-439 -325 -114 4 -206 30 -261 76 -48 40 -94 135 -105 222 -5 37 -8 492 -8
1012 1 938 1 945 -19 946 -55 3 -503 4 -522 1z"/>
</g>
</svg>
